<?xml version="1.0" encoding="UTF-8"?>
<svg width="168px" height="49px" viewBox="0 0 168 49" version="1.1" xmlns="http://www.w3.org/2000/svg" xmlns:xlink="http://www.w3.org/1999/xlink">
    <defs>
        <linearGradient x1="50%" y1="37.727301%" x2="65.8338352%" y2="19.5378462%" id="linearGradient-1">
            <stop stop-color="#A41E22" offset="0%"></stop>
            <stop stop-color="#CC0000" offset="100%"></stop>
        </linearGradient>
    </defs>
    <g id="Final" stroke="none" stroke-width="1" fill="none" fill-rule="evenodd">
        <g transform="translate(-30.000000, -22.000000)">
            <g transform="translate(30.000000, 22.000000)">
                <g id="Group-2" transform="translate(0.000000, -0.000000)">
                    <path d="M53.9102322,16.7466923 L55.4477251,16.7466923 L60.4257355,25.9260256 L65.4050021,16.7466923 L66.9412389,16.7466923 L60.4257355,28.8170256 L53.9102322,16.7466923 Z M51.5009907,16.7466923 C52.7395267,16.7466923 53.3374407,17.297 53.9102322,18.3297692 L60.4257355,30.3548718 L66.9412389,18.3297692 C67.5152866,17.297 68.1119444,16.7466923 69.3504804,16.7466923 L60.4257355,33.2232564 L51.5009907,16.7466923 L51.5009907,16.7466923 Z M84.0634341,24.7776667 C84.0634341,22.0462308 81.8375865,19.8211282 79.1067778,19.8211282 C76.3772253,19.8211282 74.1513776,22.0462308 74.1513776,24.7776667 C74.1513776,27.5091026 76.3772253,29.7354615 79.1067778,29.7354615 C81.8375865,29.7354615 84.0634341,27.5091026 84.0634341,24.7776667 M72.8663651,24.7776667 C72.8663651,21.3124872 75.6423941,18.5358205 79.1067778,18.5358205 C82.5711615,18.5358205 85.3484467,21.3124872 85.3484467,24.7776667 C85.3484467,28.2428462 82.5711615,31.0195128 79.1067778,31.0195128 C75.6423941,31.0195128 72.8663651,28.2428462 72.8663651,24.7776667 M86.1737186,24.7776667 C86.1737186,20.8777692 83.0070358,17.710359 79.1067778,17.710359 C75.2065199,17.710359 72.0410931,20.8777692 72.0410931,24.7776667 C72.0410931,28.6788205 75.2065199,31.8462308 79.1067778,31.8462308 C83.0070358,31.8462308 86.1737186,28.6788205 86.1737186,24.7776667 M70.7560806,24.7776667 C70.7560806,20.1653846 74.4968111,16.4250513 79.1067778,16.4250513 C83.7180007,16.4250513 87.4587312,20.1653846 87.4587312,24.7776667 C87.4587312,29.3899487 83.7180007,33.1302821 79.1067778,33.1302821 C74.4968111,33.1302821 70.7560806,29.3899487 70.7560806,24.7776667 M102.788441,16.7466923 L97.58056,26.2011795 L97.58056,32.8098974 L96.2955475,32.8098974 L96.2955475,25.7652051 L100.44703,18.1915641 C100.930637,17.3196154 101.595125,16.7466923 102.788441,16.7466923 Z M88.9761262,16.7466923 C90.1694418,16.7466923 90.8351864,17.3196154 91.316281,18.1915641 L95.4690194,25.7652051 L95.4690194,32.8098974 L94.1840069,32.8098974 L94.1840069,26.2011795 L88.9761262,16.7466923 Z M111.515974,20.7395641 L118.032734,32.8098974 L116.493985,32.8098974 L111.515974,23.6305641 L106.537964,32.8098974 L105.000471,32.8098974 L111.515974,20.7395641 Z M111.515974,16.3333333 L120.441975,32.8098974 C119.202183,32.8098974 118.605525,32.2595897 118.032734,31.2268205 L111.515974,19.2017179 L105.000471,31.2268205 C104.426423,32.2595897 103.831022,32.8098974 102.592486,32.8098974 L111.515974,16.3333333 Z M92.9228607,16.7466923 L95.8822834,22.2083077 L98.8417062,16.7466923 L100.379199,16.7466923 L95.8822834,24.9849744 L91.3853677,16.7466923 L92.9228607,16.7466923 Z M125.201421,24.7776667 C125.201421,27.5091026 127.426012,29.7354615 130.156821,29.7354615 C131.32627,29.7354615 132.405279,29.3221026 133.254417,28.6562051 L133.254417,26.5228205 L129.491076,26.5228205 L130.203297,25.2375128 L134.698957,25.2375128 L134.698957,29.0469487 C133.391334,30.3536154 132.014625,31.0195128 130.156821,31.0195128 C126.692437,31.0195128 123.916408,28.2428462 123.916408,24.7776667 C123.916408,21.3124872 126.692437,18.5358205 130.156821,18.5358205 C131.350136,18.5358205 132.405279,18.8574615 133.368724,19.431641 L132.749456,20.5548718 C131.992015,20.0975385 131.097656,19.8211282 130.156821,19.8211282 C127.426012,19.8211282 125.201421,22.0462308 125.201421,24.7776667 M136.833108,23.1254872 L136.833108,29.8033077 C135.296871,31.822359 132.886373,33.1302821 130.156821,33.1302821 C125.545598,33.1302821 121.804867,29.3899487 121.804867,24.7776667 C121.804867,20.1653846 125.545598,16.4250513 130.156821,16.4250513 C131.694314,16.4250513 133.14011,16.8371538 134.378646,17.5734103 C133.987992,18.2154359 133.437811,18.4441026 132.496976,18.0998462 C131.762144,17.8246923 131.005959,17.710359 130.156821,17.710359 C126.256563,17.710359 123.08988,20.8777692 123.08988,24.7776667 C123.08988,28.6788205 126.256563,31.8462308 130.156821,31.8462308 C132.267105,31.8462308 134.217862,30.9504103 135.525485,29.3899487 L135.525485,24.4107949 L130.637915,24.4107949 L131.350136,23.1254872 L136.833108,23.1254872 M145.527982,29.4138205 L152.088706,29.4138205 L152.088706,30.6991282 L144.24297,30.6991282 L144.24297,25.1910256 L149.589024,25.1910256 L148.900669,26.4763333 L145.527982,26.4763333 L145.527982,29.4138205 Z M144.24297,18.8574615 L152.088706,18.8574615 L152.088706,20.1415128 L145.527982,20.1415128 L145.527982,23.079 L150.735863,23.079 L150.023642,24.3655641 L144.24297,24.3655641 L144.24297,18.8574615 Z M142.131429,16.7466923 L152.088706,16.7466923 C152.088706,17.6173846 151.332521,18.0307436 150.322599,18.0307436 L143.416442,18.0307436 L143.416442,31.5245897 L150.322599,31.5245897 C151.585001,31.5245897 152.088706,32.1452564 152.088706,32.8098974 L142.131429,32.8098974 L142.131429,16.7466923 L142.131429,16.7466923 Z M157.560372,21.2672564 C157.560372,18.5823077 159.76361,16.4250513 162.517029,16.4250513 C163.962825,16.4250513 165.452585,16.8610256 166.623291,17.8711795 C166.279113,18.5358205 165.728932,18.6501538 164.788097,18.2141795 C164.260526,17.961641 163.548305,17.710359 162.562249,17.710359 C160.384134,17.710359 158.845385,19.2934359 158.845385,21.1981538 C158.845385,23.3554103 160.704445,24.2964615 162.608726,25.0528205 C164.421309,25.7652051 165.889716,26.4989487 165.889716,28.2654615 C165.889716,29.8033077 164.352223,31.0207692 162.562249,31.0207692 C160.727055,31.0207692 159.052645,30.1023333 157.88194,28.9552308 L158.479853,27.8294872 C159.374212,28.7944103 161.071233,29.7342051 162.539639,29.7342051 C163.778175,29.7342051 164.604703,29.1838974 164.604703,28.2893333 C164.604703,27.4638718 163.824651,27.026641 161.965591,26.2464103 C160.061311,25.4435641 157.560372,24.3881795 157.560372,21.2672564 M168,28.2893333 C168,31.1112308 165.293058,33.1315385 162.471808,33.1315385 C160.107787,33.1315385 158.317814,32.1892308 156.826797,30.8599487 C157.193585,30.2392821 157.996247,30.1940513 158.707211,30.6765128 C159.787476,31.4102564 160.979536,31.8462308 162.562249,31.8462308 C164.71901,31.8462308 166.714987,30.3083846 166.714987,28.2654615 C166.714987,25.948641 164.855927,25.0993077 162.861206,24.2964615 C161.186796,23.6305641 159.671913,22.8277179 159.671913,21.1755385 C159.671913,19.7294103 160.910449,18.4905897 162.562249,18.4905897 C163.594781,18.4905897 164.580837,18.8574615 165.637235,19.6376923 L165.016711,20.7395641 C164.099742,19.9819487 163.29708,19.7758974 162.562249,19.7758974 C161.64528,19.7758974 160.956925,20.2797179 160.956925,21.1064359 C160.956925,21.8414359 161.64528,22.414359 163.388777,23.149359 C165.452585,24.0200513 168,25.0075897 168,28.2893333" id="voyages" fill="#CC0000"></path>
                    <g id="V">
                        <path d="M47.2352013,6.98438462 L45.1337097,6.98061538 C42.8086284,7.01453846 40.7862724,8.29105128 39.6934465,10.1718974 L23.621369,38.7954359 L7.50783955,10.1580769 C6.41375752,8.28351282 4.39642603,7.01830769 2.07762533,6.98438462 L0,6.98438462 L23.6176007,49 L47.2352013,6.98438462" id="Fill-1" fill="#CC0000"></path>
                        <polyline id="Fill-4" fill="#CC0000" points="43.6653034 0 3.5384949 0 23.6238813 35.6921026 43.6653034 0"></polyline>
                        <polygon id="Clip-6" fill="url(#linearGradient-1)" points="23.6025272 0 23.6238813 35.6921026 3.5384949 0"></polygon>
                        <path d="M28.3795581,6.11369231 C28.3067031,6.0885641 28.2363602,6.09233333 28.1622491,6.10866667 C28.0203073,6.13882051 27.9047441,6.21546154 27.8017421,6.31723077 C27.7238626,6.39010256 27.6786422,6.4805641 27.6484953,6.57982051 C27.6233728,6.65897436 27.6271412,6.73184615 27.6610565,6.80597436 C27.6736177,6.83487179 27.6886912,6.86628205 27.7150697,6.88889744 C27.738936,6.91151282 27.7703391,6.92533333 27.8029982,6.93412821 C27.9085125,6.96428205 28.0140267,6.98061538 28.1132603,6.90523077 L28.140895,6.88889744 C28.2087256,6.83989744 28.2790684,6.80346154 28.3242888,6.72807692 C28.3544357,6.67782051 28.3946316,6.63258974 28.4348275,6.58987179 C28.5014019,6.52328205 28.5101948,6.4315641 28.5503907,6.35366667 L28.5503907,6.33482051 C28.5353172,6.25692308 28.5139631,6.18405128 28.4574377,6.12751282 C28.4310591,6.12248718 28.4021683,6.12248718 28.3795581,6.11369231 L28.3795581,6.11369231 Z M20.6845564,9.91684615 C20.7335452,9.93317949 20.7900707,9.95202564 20.8491084,9.92187179 C20.9822573,9.86282051 21.1003327,9.77738462 21.2133837,9.68566667 C21.2397622,9.66430769 21.2724214,9.64797436 21.288751,9.62033333 C21.3214101,9.56379487 21.3678866,9.5185641 21.4005458,9.46076923 C21.4570713,9.35774359 21.4734009,9.25597436 21.4294366,9.14541026 C21.4168754,9.11274359 21.3955213,9.07882051 21.3879846,9.04489744 C21.3766795,9.00217949 21.3503009,8.98333333 21.3138734,8.97202564 C21.288751,8.96574359 21.2636285,8.96323077 21.2397622,8.96323077 C21.1530898,8.96448718 21.0739542,8.98835897 21.0061236,9.03358974 C20.9219634,9.08887179 20.8403155,9.15294872 20.7611799,9.21953846 C20.7234962,9.2484359 20.6971176,9.28989744 20.6619462,9.32130769 C20.6104453,9.36779487 20.6041646,9.43689744 20.57653,9.49469231 C20.5488953,9.54871795 20.5375902,9.61028205 20.5287973,9.64420513 C20.5350779,9.78492308 20.57653,9.87789744 20.6845564,9.91684615 L20.6845564,9.91684615 Z M28.0680399,9.71958974 C28.0253318,9.69823077 28.0303563,9.65676923 28.0328685,9.62410256 C28.0366369,9.58264103 28.0429175,9.5424359 28.0718083,9.506 L28.0906501,9.48087179 C28.0718083,9.42433333 28.1082358,9.36779487 28.0768328,9.31376923 C28.0680399,9.30246154 28.0718083,9.28110256 28.0780889,9.26728205 C28.0831134,9.25094872 28.0831134,9.23712821 28.079345,9.21828205 C28.0718083,9.17179487 28.079345,9.1265641 28.0780889,9.08007692 C28.0780889,9.04741026 28.0642716,9.00971795 28.0743205,8.9795641 C28.0956746,8.9305641 28.0780889,8.88533333 28.0768328,8.83758974 C28.0743205,8.78733333 28.0718083,8.7345641 28.0718083,8.68305128 C28.0743205,8.6604359 28.079345,8.64033333 28.0856256,8.61897436 C28.0919062,8.59133333 28.1132603,8.55992308 28.1082358,8.53228205 C28.099443,8.50338462 28.099443,8.48202564 28.1132603,8.45312821 C28.1270776,8.41292308 28.1346144,8.36392308 28.1283338,8.32246154 C28.1182848,8.26089744 28.1434072,8.20687179 28.1522001,8.15033333 C28.1597368,8.0975641 28.1748103,8.04982051 28.1434072,7.99579487 C28.1258215,7.96312821 28.1044675,7.93171795 28.1044675,7.88774359 C28.1069797,7.81612821 28.0718083,7.77717949 27.9976971,7.76964103 C27.9436839,7.76335897 27.8846462,7.76964103 27.8281207,7.77717949 C27.738936,7.78974359 27.6673371,7.84502564 27.5982504,7.90533333 C27.4613331,8.0234359 27.3935026,8.17797436 27.3558189,8.34633333 C27.3369771,8.43930769 27.3319526,8.53479487 27.3193914,8.63028205 C27.3105985,8.69687179 27.3005496,8.76094872 27.2930128,8.82753846 C27.2779394,8.98333333 27.2653781,9.13912821 27.2490486,9.2974359 C27.2364873,9.4205641 27.2201578,9.54494872 27.2088527,9.67058974 C27.181218,9.93946154 27.1573517,10.2121026 27.1309731,10.4797179 C27.1272048,10.5299744 27.1259486,10.5752051 27.1209241,10.6242051 C27.1171558,10.7146667 27.0995701,10.8026154 27.1045946,10.8918205 C27.1096191,10.9672051 27.139766,11.0438462 27.2176455,11.0827949 C27.2829638,11.1167179 27.3545628,11.1242564 27.4223934,11.1003846 C27.5768963,11.0438462 27.7188381,10.9672051 27.8444503,10.8553846 C27.9085125,10.7975897 27.9323788,10.7196923 27.9889043,10.6618974 C27.9926726,10.5827436 28.0353808,10.5048462 27.9976971,10.4256923 C27.9914165,10.4068462 27.9926726,10.3854872 27.9939287,10.3653846 C27.9976971,10.2535641 28.0027216,10.143 28.0090022,10.0286667 C28.0140267,9.97087179 28.0177951,9.90930769 28.0240757,9.849 C28.0454297,9.85276923 28.0630154,9.85905128 28.0806011,9.86533333 C28.0642716,9.82764103 28.0504542,9.79874359 28.0328685,9.75979487 C28.0542226,9.77235897 28.0642716,9.77738462 28.0743205,9.78241026 C28.0969307,9.75476923 28.0919062,9.73089744 28.0680399,9.71958974 L28.0680399,9.71958974 Z M21.031246,11.2461282 C21.0362705,11.1757692 21.0149164,11.1079231 20.9659277,11.0538974 C20.9081461,10.9785128 20.8227298,10.9772564 20.7410819,10.9986154 C20.5526637,11.0476154 20.3981607,11.150641 20.2825975,11.3039231 C20.1368874,11.4961538 20.0853864,11.7223077 20.0652884,11.956 C20.0590078,12.0439487 20.0514711,12.130641 20.0426782,12.2185897 C20.0414221,12.2537692 20.0376537,12.2902051 20.0376537,12.3278974 C20.0363976,12.3944872 20.0363976,12.4623333 20.0326293,12.5289231 C20.0250925,12.6796923 20.0162997,12.8329744 20.0075068,12.9812308 C20.0062507,13.0000769 19.998714,13.0189231 19.9962017,13.0402821 C19.9924334,13.0591282 19.9848966,13.0767179 19.9848966,13.0955641 C19.9811283,13.1621538 19.9848966,13.2274872 19.9761038,13.2928205 C19.9710793,13.3644359 19.9597742,13.4347949 19.9597742,13.5089231 C19.9597742,13.6735128 19.9434446,13.8381026 19.937164,14.0014359 C19.9333956,14.1459231 19.9208344,14.2904103 19.9359079,14.433641 C19.9509813,14.5881795 19.9911772,14.6396923 20.1569853,14.6585385 C20.2210475,14.6660769 20.2750607,14.6472308 20.3303301,14.6170769 C20.4433811,14.5542564 20.5488953,14.4851538 20.639336,14.3921795 L20.6669707,14.3771026 C20.7096789,14.3896667 20.7134472,14.357 20.7234962,14.3306154 C20.7888145,14.3343846 20.8001196,14.3167949 20.7888145,14.2514615 L20.7373135,14.2514615 C20.7410819,14.2275897 20.7435942,14.2087436 20.7461064,14.1911538 C20.7548992,14.1584872 20.7649482,14.1295897 20.7712288,14.0981795 C20.7888145,14.0077179 20.803888,13.9172564 20.8202176,13.8242821 C20.8227298,13.8104615 20.8302666,13.7953846 20.8277543,13.7828205 C20.7988635,13.6772821 20.8302666,13.5679744 20.8189615,13.4599231 C20.8164492,13.4486154 20.8202176,13.4373077 20.8202176,13.4247436 C20.835291,13.3317692 20.8503645,13.2400513 20.8616696,13.1470769 C20.8717186,13.0704359 20.8779992,12.9912821 20.8993532,12.914641 C20.9081461,12.8819744 20.9031216,12.8442821 20.9081461,12.8128718 C20.9081461,12.7789487 20.9081461,12.7437692 20.9131706,12.7098462 C20.9257318,12.6583333 20.948342,12.6080769 20.9558787,12.5565641 C20.9646716,12.4811795 20.9684399,12.4057949 20.9659277,12.3304103 C20.9646716,12.2625641 20.9596471,12.2022564 20.9847695,12.1369231 C21.0086358,12.081641 21.0086358,12.0163077 21.0174287,11.9585128 C21.0224532,11.9170513 21.031246,11.8755897 21.0287338,11.836641 C21.0249654,11.7926667 21.0337583,11.7574872 21.0538562,11.7172821 C21.0626491,11.6984359 21.0714419,11.6707949 21.0664174,11.6532051 C21.0475756,11.6155128 21.0626491,11.5878718 21.0739542,11.564 C21.0551123,11.5187692 21.0337583,11.4785641 21.0262215,11.438359 C21.0124042,11.3818205 21.0224532,11.3692564 21.0802348,11.3453846 C21.0626491,11.3089487 21.0262215,11.2901026 21.031246,11.2461282 L21.031246,11.2461282 Z M22.7081685,11.5388718 C22.723242,11.5062051 22.7295226,11.4722821 22.7320348,11.438359 C22.7420838,11.3805641 22.7621818,11.3202564 22.784792,11.2624615 C22.8337807,11.150641 22.9116602,11.052641 22.9983326,10.9646923 C23.0887734,10.8729744 23.1942876,10.7938205 23.2972896,10.7171795 C23.383962,10.6531026 23.4618416,10.5902821 23.5196232,10.4998205 C23.5761486,10.4068462 23.5723803,10.3088462 23.5522823,10.213359 C23.5434895,10.1568205 23.5007813,10.1078205 23.4756589,10.0563077 C23.4291824,9.96333333 23.3500467,9.94071795 23.2583498,9.95202564 C23.1842387,9.95830769 23.1164081,9.98469231 23.053602,10.023641 C23.0146622,10.0462564 22.9732102,10.0651026 22.9355266,10.0801795 C22.8877939,10.1002821 22.8388052,10.1115897 22.7973532,10.1329487 C22.7157053,10.1794359 22.6290329,10.2070769 22.537336,10.213359 C22.4066993,10.2271795 22.279831,10.2585897 22.1642678,10.3188974 C22.0537291,10.3792051 21.9582639,10.4571026 21.89797,10.5714359 C21.8364201,10.6832564 21.8087854,10.8114103 21.7962242,10.9383077 C21.7811507,11.0941026 21.7786385,11.2511538 21.7685895,11.4094615 C21.7648211,11.4886154 21.7597966,11.5677692 21.7560283,11.6481795 C21.7484915,11.7424103 21.7396987,11.8353846 21.7334181,11.928359 C21.7309058,11.9698205 21.7346742,12.0163077 21.7208569,12.0577692 C21.702015,12.1180769 21.6856854,12.1758718 21.6894538,12.2399487 C21.6969905,12.3165897 21.6618191,12.3944872 21.6932222,12.4723846 L21.6894538,12.4987692 C21.6693559,12.5766667 21.650514,12.6558205 21.6819171,12.7387436 C21.6856854,12.7487949 21.6856854,12.7638718 21.6831732,12.7789487 C21.6794048,12.8279487 21.6743804,12.8769487 21.6743804,12.9259487 C21.6743804,13.0088718 21.6392089,13.0842564 21.6555385,13.1684359 C21.6655875,13.2475897 21.6555385,13.328 21.6555385,13.4071538 C21.6555385,13.4762564 21.6781487,13.5390769 21.7108079,13.5968718 C21.7597966,13.6860769 21.8489813,13.7363333 21.9356537,13.72 C22.1027179,13.6873333 22.2685259,13.6069231 22.4041871,13.4737436 C22.5222625,13.3581538 22.5762757,13.2149231 22.5900931,13.0515897 C22.5976298,12.9774615 22.5813002,12.8983077 22.6164716,12.8292051 L22.6177278,12.8015641 C22.6152155,12.7362308 22.6089349,12.6708974 22.6114472,12.6055641 C22.6177278,12.4547949 22.6277767,12.3040256 22.6340573,12.1545128 C22.6378257,12.1067692 22.6478747,12.0627949 22.6478747,12.0200769 C22.6528992,11.9358974 22.6478747,11.8504615 22.6528992,11.7662821 C22.6579237,11.7311026 22.6554114,11.683359 22.6981196,11.6695385 C22.7006318,11.6180256 22.6943512,11.5753077 22.7081685,11.5388718 L22.7081685,11.5388718 Z M21.62916,2.86587179 L21.6153426,2.87466667 C21.4495346,2.91487179 21.3163857,3.00658974 21.2033347,3.13223077 C21.1229429,3.21641026 21.0463195,3.30184615 20.9960746,3.41241026 C20.9533665,3.50538462 20.8993532,3.59207692 20.8579012,3.68630769 C20.8114247,3.79561538 20.7712288,3.9074359 20.7310329,4.01925641 C20.6204942,4.31074359 20.5086994,4.60097436 20.3981607,4.89120513 C20.3240495,5.08594872 20.2499383,5.28320513 20.1783394,5.48297436 C20.1343751,5.59982051 20.0954353,5.7204359 20.0564956,5.83602564 C19.957262,6.11369231 19.8567722,6.39010256 19.7587947,6.664 C19.7462335,6.7004359 19.7286478,6.73310256 19.7123182,6.77079487 C19.6972448,6.80974359 19.6796591,6.84994872 19.6645856,6.89015385 C19.6457438,6.94920513 19.6356948,7.01076923 19.6143407,7.06730769 C19.5904744,7.13766667 19.5565591,7.20174359 19.5339489,7.27210256 C19.4912408,7.41533333 19.4548133,7.55730769 19.4146174,7.69928205 C19.4070806,7.72064103 19.3970317,7.742 19.3894949,7.76210256 C19.379446,7.79351282 19.3681409,7.8274359 19.3606041,7.86010256 C19.3543235,7.90784615 19.369397,7.95935897 19.3266888,8.00207692 C19.3166399,8.01212821 19.3191521,8.036 19.3128715,8.05358974 C19.307847,8.08374359 19.3003103,8.11012821 19.2940297,8.14028205 C19.2312236,8.36266667 19.1646491,8.58253846 19.1018431,8.80492308 C19.0767206,8.90166667 19.07044,9.00217949 19.0440615,9.10017949 C19.0176829,9.20948718 18.9787431,9.31376923 18.9498523,9.4205641 C18.8908146,9.64420513 18.833033,9.86658974 18.7739953,10.0902308 C18.7664586,10.1254103 18.7538973,10.1605897 18.7476167,10.1945128 C18.730031,10.2698974 18.7162137,10.3427692 18.6973719,10.415641 C18.6822984,10.4797179 18.6609443,10.5437949 18.6496392,10.6091282 C18.6006505,10.8528718 18.5591985,11.0966154 18.5051852,11.3416154 C18.4637332,11.536359 18.4210251,11.7336154 18.3908782,11.9333846 C18.3607312,12.1507436 18.3155109,12.3643333 18.2778272,12.5816923 C18.2577293,12.7085897 18.2439119,12.8354872 18.2250701,12.9611282 C18.1898987,13.1684359 18.1572395,13.3757436 18.1245804,13.5855641 C18.1082508,13.7187436 18.0931773,13.8519231 18.0730794,13.9838462 C18.069311,14.0215385 18.0529814,14.0567179 18.037908,14.0931538 C18.01781,14.0743077 18.0052488,14.0667692 17.9939437,14.0529487 C17.9838947,14.0403846 17.9700774,14.0265641 17.9688213,14.0102308 C17.9650529,13.9700256 17.9575162,13.9285641 17.9650529,13.8908718 C17.9738458,13.845641 17.9612845,13.8267949 17.9261131,13.8142308 C17.9198325,13.72 17.9336499,13.6270256 17.8984784,13.5390769 C17.893454,13.5227436 17.8947101,13.5013846 17.8972223,13.4850513 C17.9047591,13.4310256 17.914808,13.3795128 17.9097835,13.3229744 C17.9060152,13.2903077 17.9009907,13.2639231 17.8808927,13.2362821 C17.8532581,13.1998462 17.821855,13.1583846 17.8607948,13.1093846 C17.8457213,13.1068718 17.8306479,13.1031026 17.8080377,13.0980769 C17.8180867,13.0277179 17.8143183,12.957359 17.8381846,12.8970513 C17.8695876,12.8292051 17.8545142,12.7764359 17.831904,12.7148718 L17.8231111,12.6972821 C17.800501,12.6294359 17.7665857,12.5641026 17.770354,12.4924872 C17.7728663,12.4296667 17.7590489,12.3731282 17.7376949,12.3128205 C17.718853,12.2587949 17.6924745,12.1972308 17.7376949,12.1406923 C17.6949867,12.0640513 17.6937306,12.0640513 17.6887061,11.9685641 C17.6849378,11.9245897 17.6648398,11.8881538 17.6535347,11.8466923 C17.6284123,11.7888974 17.584448,11.7311026 17.6083143,11.6733077 C17.5882164,11.6456667 17.5706307,11.6268205 17.5656062,11.6054615 C17.5593256,11.542641 17.5568133,11.4785641 17.5404838,11.4157436 C17.5203858,11.3541795 17.5178736,11.2875897 17.5028001,11.2235128 C17.4940073,11.1770256 17.4927511,11.1292821 17.4839583,11.0827949 C17.4789338,11.0136923 17.4312012,10.9458462 17.4764215,10.8742308 C17.4801899,10.8666923 17.4713971,10.8528718 17.4701409,10.8403077 C17.4663726,10.8239744 17.4525552,10.8026154 17.4575797,10.7887949 C17.4764215,10.7473333 17.4512991,10.731 17.4349695,10.7196923 C17.4286889,10.682 17.4286889,10.6531026 17.4249206,10.6292308 C17.4211522,10.5965641 17.4111032,10.5664103 17.4035665,10.5362564 C17.3997981,10.5174103 17.4073349,10.4910256 17.3997981,10.4797179 C17.35709,10.4256923 17.3721634,10.360359 17.35709,10.3000513 C17.3307114,10.1819487 17.3219186,10.0600769 17.3030768,9.94071795 C17.2628809,9.70074359 17.2201727,9.46328205 17.1787207,9.22582051 C17.1623911,9.13033333 17.1247075,9.03987179 17.0694381,8.96323077 C16.9362892,8.77728205 16.6586863,8.74335897 16.4778048,8.85769231 C16.377315,8.92051282 16.3119967,9.00469231 16.2718008,9.11525641 C16.24291,9.18938462 16.2190437,9.26728205 16.1951774,9.34266667 C16.1361397,9.51605128 16.0808703,9.69069231 16.0218326,9.86533333 C16.0142959,9.89423077 16.005503,9.92689744 15.9904295,9.95328205 C15.9678194,9.99097436 15.9565143,10.0311795 15.9489775,10.0751538 C15.9389286,10.1166154 15.9188306,10.1555641 15.9075255,10.1970256 C15.8886837,10.2497949 15.8673296,10.3000513 15.8585368,10.3528205 C15.8334143,10.4910256 15.7731205,10.6179231 15.7341807,10.752359 C15.716595,10.8001026 15.6977532,10.8453333 15.685192,10.8955897 C15.6638379,10.9835385 15.64374,11.0752564 15.5909828,11.1544103 C15.5708849,11.1833077 15.5658604,11.2222564 15.5608359,11.2574359 C15.5545553,11.3114615 15.5457625,11.3654872 15.5105911,11.4044359 C15.489237,11.4308205 15.4741635,11.4572051 15.4678829,11.487359 C15.4540656,11.5866154 15.4201503,11.6808462 15.3824666,11.7725641 C15.3523197,11.8466923 15.3196605,11.9170513 15.303331,11.9987179 C15.2807208,12.1105385 15.231732,12.2185897 15.1953045,12.3291538 C15.1613892,12.4321795 15.1249617,12.5364615 15.0935586,12.6432564 C15.0897903,12.6583333 15.087278,12.6771795 15.0910464,12.6960256 C15.1224494,12.8505641 15.210378,12.9623846 15.3736738,12.9963077 C15.4226625,13.0101282 15.4754196,12.9963077 15.5244084,12.9963077 C15.6248981,12.9887692 15.7040338,12.9422821 15.7693521,12.8706667 C15.7819133,12.8543333 15.8020113,12.8442821 15.809548,12.838 C15.8221092,12.8028205 15.8309021,12.7776923 15.8422072,12.7500513 C15.8447194,12.7387436 15.8535123,12.7261795 15.8585368,12.7136154 C15.8861714,12.6269231 15.9163184,12.5414872 15.9653071,12.4635897 C15.9816367,12.4397179 15.9879173,12.4133333 15.9929418,12.3856923 C16.0017346,12.3417179 16.0180642,12.299 16.0582601,12.2801538 C16.057004,12.2625641 16.0456989,12.2474872 16.0494673,12.2374359 C16.0695652,12.1871795 16.0946877,12.1369231 16.1147856,12.0879231 C16.1198101,12.075359 16.1198101,12.0627949 16.1210662,12.0489744 C16.1260907,12.0238462 16.1273468,11.9987179 16.1286029,11.9723333 C16.1763356,11.9685641 16.1549815,11.9321282 16.1637743,11.907 C16.1826162,11.8554872 16.1725672,11.7939231 16.2190437,11.7549744 L16.2240682,11.7424103 C16.201458,11.6733077 16.2730569,11.6381282 16.2755692,11.5778205 C16.3233018,11.536359 16.3157651,11.4785641 16.3132528,11.4207692 C16.3295824,11.4119744 16.3471681,11.4019231 16.355961,11.3994103 C16.3622416,11.3793077 16.3685222,11.3504103 16.3710344,11.3504103 C16.407462,11.3504103 16.4099742,11.3215128 16.4200232,11.3014103 C16.4363528,11.2599487 16.4501701,11.2197436 16.4652436,11.1807949 C16.470268,11.1669744 16.4865976,11.1493846 16.4966466,11.150641 C16.5242813,11.1594359 16.5506598,11.1707436 16.57327,11.1883333 C16.5958802,11.2071795 16.6134659,11.2323077 16.5946241,11.2649744 C16.5883435,11.2737692 16.5958802,11.2888462 16.5996486,11.3026667 C16.6210027,11.2951282 16.6385884,11.2888462 16.6511496,11.2838205 C16.6511496,11.3227692 16.6586863,11.3566923 16.6511496,11.3906154 C16.6385884,11.4396154 16.6511496,11.487359 16.6536618,11.5351026 C16.6536618,11.5665128 16.6611985,11.5878718 16.6812965,11.613 C16.7001383,11.6356154 16.7227485,11.6632564 16.7240046,11.6871282 C16.7265169,11.7512051 16.7441026,11.8064872 16.7516393,11.8680513 C16.7742495,12.0150513 16.7968597,12.1670769 16.8219821,12.3140769 C16.8370556,12.4158462 16.8558974,12.5151026 16.8458484,12.6193846 C16.8445923,12.6407436 16.8445923,12.6671282 16.8558974,12.6796923 C16.8898127,12.7224103 16.8873005,12.7751795 16.8923249,12.8229231 C16.9011178,12.8769487 16.9099107,12.9309744 16.9161913,12.9862564 C16.9488504,13.1897949 16.9815096,13.3958462 17.0129126,13.6018974 C17.0380351,13.7828205 17.0606453,13.9624872 17.0882799,14.1446667 C17.1134024,14.3130256 17.1385248,14.4801282 17.1636472,14.6497436 C17.192538,14.8181026 17.2176605,14.9814359 17.2465513,15.1485385 C17.2628809,15.2440256 17.2804666,15.337 17.2503196,15.4312308 L17.2503196,15.4437949 C17.3131257,15.4965641 17.3357359,15.5292308 17.2628809,15.6108974 C17.3081012,15.6021026 17.3269431,15.6196923 17.3319676,15.6573846 C17.3520655,15.7641795 17.35709,15.8734872 17.3847247,15.9790256 C17.3935175,16.0104359 17.4035665,16.044359 17.3847247,16.0782821 C17.3809563,16.0870769 17.3935175,16.1034103 17.3972859,16.1172308 C17.3997981,16.1310513 17.4111032,16.1436154 17.4148716,16.1612051 C17.4374818,16.2906154 17.4575797,16.4225385 17.4801899,16.5544615 C17.5053123,16.6939231 17.5228981,16.8296154 17.5480205,16.9665641 C17.584448,17.1324103 17.6246439,17.297 17.6623276,17.4603333 C17.6786571,17.5445128 17.7263898,17.6085897 17.790452,17.6638718 C17.8909417,17.7480513 18.0052488,17.7405128 18.1195559,17.7128718 C18.2665221,17.6751795 18.3544506,17.5796923 18.4034394,17.4377179 C18.4524281,17.2944872 18.4700138,17.1412051 18.4951363,16.9904359 C18.5215148,16.8459487 18.5403566,16.6989487 18.5604546,16.5506923 C18.5843209,16.3773077 18.6081872,16.2026667 18.6307974,16.0280256 C18.6684811,15.7415641 18.7023964,15.4525897 18.7375678,15.1648718 C18.7538973,15.0291795 18.771483,14.8922308 18.7890688,14.7577949 C18.7978616,14.6798974 18.8053983,14.5994872 18.8280085,14.5278718 C18.8481065,14.4650513 18.8757411,14.4047436 18.8707167,14.3381538 C18.9548768,14.308 18.9586452,14.2816154 18.9046319,14.2175385 L18.8883024,14.1861282 C18.8883024,14.1509487 18.8908146,14.1170256 18.8970952,14.0831026 C18.9046319,14.0026923 18.9222177,13.9247949 18.9222177,13.8443846 C18.9247299,13.7865897 18.9473401,13.7388462 18.9825115,13.698641 C19.0063778,13.6722564 19.0139145,13.6458718 19.0201951,13.6144615 C19.0227074,13.5993846 19.0201951,13.5855641 19.0252196,13.5742564 C19.07044,13.5064103 19.0541104,13.4310256 19.0528543,13.3568974 C19.0528543,13.3506154 19.0402931,13.3367949 19.0302441,13.3355385 C18.9988411,13.3305128 18.9988411,13.3091538 18.9988411,13.2852821 C18.9988411,13.1784872 19.0340125,13.0742051 19.0528543,12.9711795 C19.0578788,12.9272051 19.0616472,12.8832308 19.0767206,12.8442821 C19.0892818,12.8128718 19.0930502,12.7839744 19.0867696,12.7538205 C19.0779767,12.7236667 19.0855135,12.7010513 19.1081237,12.6796923 C19.1194288,12.6671282 19.13199,12.6507949 19.1332461,12.6344615 C19.1382706,12.5703846 19.142039,12.5050513 19.1395267,12.4397179 C19.1395267,12.4095641 19.1470634,12.3819231 19.1583685,12.3555385 C19.1772104,12.2927179 19.2123818,12.2311538 19.1960522,12.1570256 C19.1897716,12.1356667 19.2073573,12.1067692 19.2186624,12.0828974 C19.2312236,12.054 19.2538338,12.0288718 19.2613705,11.9999744 C19.2751879,11.9409231 19.2852368,11.879359 19.2588583,11.8177949 C19.2488093,11.7989487 19.2538338,11.7687949 19.2613705,11.7449231 C19.2613705,11.7223077 19.2726756,11.7009487 19.2777001,11.6783333 C19.2814685,11.6569744 19.2839807,11.6381282 19.307847,11.6243077 C19.3266888,11.6155128 19.3405062,11.5778205 19.3354817,11.5552051 C19.3329695,11.5338462 19.3266888,11.5187692 19.3442746,11.5036923 L19.3480429,11.4710256 C19.3342256,11.4484103 19.3405062,11.4333333 19.3543235,11.4144872 C19.359348,11.4019231 19.3568358,11.3881026 19.359348,11.3755385 C19.359348,11.3529231 19.3543235,11.3303077 19.359348,11.3089487 C19.3894949,11.1707436 19.4234102,11.0337949 19.4548133,10.8968462 C19.4950092,10.7247179 19.5289244,10.5525897 19.5716326,10.3829744 C19.606804,10.241 19.6306703,10.0977692 19.699757,9.96835897 C19.7386968,9.88669231 19.7424651,9.78869231 19.8065273,9.72084615 L19.812808,9.69571795 C19.8278814,9.63415385 19.8429549,9.57133333 19.8643089,9.50976923 C19.8680773,9.49217949 19.8781263,9.4695641 19.8969681,9.45951282 C19.9647987,9.41553846 19.9761038,9.34266667 19.9911772,9.27230769 C19.998714,9.22582051 19.9924334,9.17682051 19.9962017,9.13033333 C20.0075068,9.05871795 20.0225803,8.98835897 20.0338854,8.91674359 C20.0414221,8.87528205 20.0414221,8.83130769 20.0539833,8.79110256 C20.0652884,8.74964103 20.091667,8.71320513 20.1079966,8.67551282 C20.1193017,8.65289744 20.1306068,8.63405128 20.133119,8.61017949 C20.1519608,8.5385641 20.1695465,8.4644359 20.1871322,8.3915641 C20.1921567,8.379 20.2022057,8.36392308 20.2072302,8.35010256 C20.2285842,8.31492308 20.2511944,8.27848718 20.2700363,8.24079487 C20.2750607,8.22948718 20.2725485,8.20938462 20.2637557,8.19682051 C20.2474261,8.16917949 20.2511944,8.14279487 20.267524,8.11264103 C20.2888781,8.06741026 20.308976,8.01841026 20.3265617,7.96941026 C20.3340985,7.96061538 20.329074,7.94930769 20.3303301,7.938 C20.3340985,7.91915385 20.3340985,7.90282051 20.3378668,7.88648718 C20.3428913,7.86638462 20.3491719,7.84879487 20.3529403,7.82869231 C20.3692699,7.76838462 20.3830872,7.70807692 20.3981607,7.64776923 C20.4207709,7.57992308 20.4471494,7.51207692 20.4697596,7.44297436 C20.4923698,7.37638462 20.5086994,7.30853846 20.5350779,7.24320513 C20.5514075,7.19294872 20.5740177,7.1414359 20.5941157,7.09117949 C20.6104453,7.05223077 20.6330554,7.01453846 20.6443605,6.97433333 C20.6745075,6.85371795 20.7096789,6.73310256 20.7787656,6.62630769 C20.7900707,6.60746154 20.7988635,6.58484615 20.8101686,6.566 C20.8315227,6.51951282 20.855389,6.47302564 20.8742308,6.42528205 C20.8855359,6.40141026 20.8930726,6.37753846 20.8918165,6.35241026 C20.8855359,6.3084359 20.8993532,6.26697436 20.916939,6.22676923 C20.9784889,6.08479487 21.0375266,5.9415641 21.1003327,5.79958974 C21.1895174,5.59982051 21.2812143,5.40130769 21.3703989,5.20028205 C21.3930091,5.145 21.4357172,5.10479487 21.4583274,5.05328205 C21.5048039,4.95402564 21.5688661,4.86733333 21.62916,4.77812821 C21.7070395,4.66128205 21.8037609,4.557 21.8954578,4.44894872 C21.9243486,4.41376923 21.9607761,4.38235897 21.9959475,4.35471795 C22.0072526,4.34341026 22.032375,4.3484359 22.0399118,4.33712821 C22.0499607,4.3245641 22.0537291,4.30194872 22.0612658,4.28561538 L22.0801077,4.27430769 C22.1052301,4.25797436 22.1265842,4.24038462 22.1542188,4.2265641 C22.1818535,4.214 22.1931586,4.16123077 22.2094882,4.12479487 C22.2170249,4.11097436 22.2094882,4.09087179 22.2195372,4.0795641 C22.2509402,4.0305641 22.2886239,3.98533333 22.321283,3.93507692 C22.3639912,3.86723077 22.4004187,3.79310256 22.4154922,3.71017949 C22.4355901,3.58830769 22.424285,3.47020513 22.3916259,3.35084615 C22.3288198,3.13223077 22.186878,2.99151282 21.9720812,2.91864103 C21.9142996,2.89979487 21.8540058,2.88220513 21.7962242,2.86587179 L21.62916,2.86587179 Z M33.5836704,9.17179487 L33.558548,9.18058974 C33.5459868,9.23712821 33.486949,9.2735641 33.4806684,9.33889744 C33.4781562,9.35774359 33.4505215,9.37658974 33.4367042,9.3954359 C33.3864593,9.47835897 33.3198849,9.54494872 33.2420053,9.60148718 C33.1955288,9.63164103 33.1515645,9.66430769 33.105088,9.69194872 C32.9480728,9.78869231 32.7759841,9.83266667 32.6026394,9.88920513 C32.4004038,9.95453846 32.1943998,10.0211282 31.9934203,10.0977692 C31.7761113,10.1794359 31.5663389,10.2724103 31.3565666,10.3653846 C31.2711503,10.4043333 31.1844779,10.4508205 31.1003178,10.4947949 C30.8063853,10.6493333 30.5137089,10.801359 30.2197764,10.954641 C30.1029571,11.0187179 29.9848817,11.0865641 29.8655501,11.1493846 C29.8040001,11.1833077 29.7399379,11.2109487 29.678388,11.2461282 C29.5829227,11.3014103 29.4887136,11.3554359 29.3945045,11.4107179 C29.2575872,11.4886154 29.1156454,11.5665128 28.9762159,11.6456667 C28.8254813,11.7336154 28.6709784,11.8240769 28.5189876,11.9145385 C28.3946316,11.9874103 28.2740439,12.0590256 28.1496878,12.130641 C28.0303563,12.2022564 27.9085125,12.2788974 27.7891809,12.3555385 C27.6221167,12.4573077 27.4550525,12.5615897 27.2917567,12.6646154 C27.2616098,12.6834615 27.2415118,12.7173846 27.2138772,12.7312051 C27.1849864,12.7425128 27.1598639,12.7663846 27.1359976,12.7776923 C27.0518375,12.8065897 26.9890314,12.8681538 26.9136641,12.914641 C26.7981009,12.9887692 26.6888183,13.0716923 26.5745112,13.153359 C26.5368275,13.1784872 26.5016561,13.1998462 26.4752776,13.2425641 C26.4576919,13.2714615 26.4124715,13.2840256 26.3823246,13.306641 C26.3484093,13.3317692 26.3057011,13.3531282 26.3220307,13.4121795 C26.3283113,13.447359 26.314494,13.4863077 26.3107256,13.5252564 C26.3057011,13.5642051 26.304445,13.6056667 26.3057011,13.6458718 C26.3057011,13.6622051 26.314494,13.6797949 26.3207746,13.7061795 C26.3107256,13.7225128 26.2943961,13.747641 26.2768103,13.7740256 C26.3283113,13.818 26.2856032,13.8644872 26.2818348,13.9172564 C26.3182624,13.9461538 26.3157501,13.986359 26.3019328,14.035359 C26.2856032,14.084359 26.2542002,14.133359 26.2994205,14.1873846 C26.3107256,14.2024615 26.3006767,14.2338718 26.2604808,14.2213077 C26.2642491,14.2388974 26.2642491,14.2564872 26.2717859,14.2690513 C26.2956522,14.3042308 26.2969083,14.3406667 26.2768103,14.3771026 L26.2717859,14.3946923 C26.3157501,14.4663077 26.2667614,14.5366667 26.2742981,14.6082821 C26.2793226,14.6773846 26.2642491,14.7502564 26.2793226,14.8231282 C26.283091,14.8495128 26.283091,14.8771538 26.2881154,14.9035385 C26.2931399,14.9211282 26.3057011,14.9525385 26.2717859,14.9676154 C26.2604808,14.9713846 26.252944,14.9952564 26.2692736,15.0191282 C26.2856032,15.0417436 26.2881154,15.0819487 26.283091,15.1108462 C26.2579685,15.2276923 26.2818348,15.3407692 26.2667614,15.4576154 C26.2642491,15.4965641 26.2617369,15.5367692 26.2617369,15.5769744 C26.2617369,15.6046154 26.2479195,15.631 26.2742981,15.6548718 L26.2793226,15.6737179 C26.2542002,15.7214615 26.2692736,15.7729744 26.2642491,15.8244872 C26.2617369,15.8734872 26.2717859,15.9237436 26.2768103,15.9802821 C26.1939063,15.9941026 26.2341022,16.0669744 26.2303338,16.1235128 C26.252944,16.1360769 26.2943961,16.1398462 26.2818348,16.1901026 C26.2667614,16.1926154 26.2504318,16.197641 26.2253094,16.2001538 C26.2416389,16.2265385 26.2554563,16.2416154 26.2793226,16.2717692 L26.252944,16.2793077 C26.3057011,16.3672564 26.2466634,16.4288205 26.2190287,16.5042051 C26.2378706,16.5431538 26.2554563,16.589641 26.2768103,16.6348718 C26.2906277,16.6625128 26.2931399,16.6851282 26.2604808,16.7027179 C26.2190287,16.7265897 26.2140043,16.7517179 26.23159,16.7919231 C26.2441512,16.8195641 26.2604808,16.8446923 26.2768103,16.8748462 C26.2554563,16.8798718 26.2391267,16.8848974 26.2190287,16.8911795 C26.2227971,16.9238462 26.2227971,16.9527436 26.2253094,16.9904359 C26.2441512,16.981641 26.2542002,16.975359 26.2642491,16.9690769 C26.2742981,16.9942051 26.2818348,17.0205897 26.2906277,17.0494872 C26.2793226,17.0557692 26.2642491,17.0633077 26.2479195,17.0721026 C26.2579685,17.1110513 26.2969083,17.1487436 26.2378706,17.1889487 C26.2692736,17.2191026 26.2981644,17.2467436 26.3270552,17.275641 C26.3157501,17.3020256 26.3019328,17.3334359 26.2881154,17.367359 C26.3069573,17.3723846 26.3220307,17.3761538 26.3396164,17.3799231 C26.3220307,17.4037949 26.2931399,17.4276667 26.3371042,17.4502821 L26.3484093,17.4666154 C26.3320797,17.5181282 26.3773001,17.5671282 26.3534338,17.6236667 C26.3446409,17.6211538 26.3345919,17.6173846 26.314494,17.612359 C26.3358481,17.6575897 26.324543,17.6940256 26.3157501,17.7329744 C26.3107256,17.7518205 26.3358481,17.7794615 26.3484093,17.8033333 C26.3647389,17.7920256 26.376044,17.787 26.3923735,17.7731795 C26.3986542,17.808359 26.4024225,17.836 26.4061909,17.863641 C26.4099593,17.9151538 26.4200082,17.9679231 26.4501551,18.0118974 C26.468997,18.0357692 26.4664847,18.0558718 26.4526674,18.0772308 C26.4388501,18.102359 26.4225205,18.1237179 26.4024225,18.1488462 C26.407447,18.1538718 26.417496,18.1626667 26.4300572,18.1777436 C26.4099593,18.1852821 26.3961419,18.1903077 26.3773001,18.1978462 C26.3785562,18.2305128 26.3785562,18.2707179 26.3860929,18.3084103 C26.3898613,18.3209744 26.407447,18.3335385 26.4225205,18.3398205 C26.4250327,18.3435897 26.4401062,18.3247436 26.4526674,18.3109231 C26.4388501,18.3574103 26.5343153,18.3586667 26.490351,18.4252564 C26.5079367,18.4365641 26.5267786,18.4466154 26.5531571,18.4642051 C26.4928633,18.4755128 26.4916072,18.5257692 26.4853266,18.5584359 C26.4815582,18.5860769 26.4677409,18.6011538 26.4551796,18.6174872 C26.458948,18.6614615 26.5368275,18.6589487 26.5016561,18.7154872 C26.5330592,18.7293077 26.5531571,18.7381026 26.5795357,18.7531795 C26.5468765,18.7858462 26.5154735,18.8147436 26.5330592,18.8612308 L26.5230102,18.8750513 C26.4765337,18.9177692 26.4777898,18.9265641 26.5330592,18.9542051 L26.5468765,18.9667692 C26.5230102,18.9881282 26.4966316,19.0044615 26.4765337,19.0283333 C26.458948,19.0522051 26.4576919,19.0848718 26.4401062,19.1087436 C26.4149837,19.1464359 26.3860929,19.1841282 26.3509215,19.2117692 C26.2843471,19.2582564 26.2089798,19.2972051 26.1361247,19.3411795 L25.8773636,19.3411795 C25.8660585,19.3399231 25.8572657,19.3323846 25.8447045,19.3298718 C25.6512617,19.2833846 25.5256496,19.1677949 25.4741486,18.9705385 C25.4314404,18.8122308 25.4038057,18.6551795 25.4075741,18.4905897 C25.4113425,18.3787692 25.4188792,18.2669487 25.4188792,18.1551282 C25.4251598,18.0232051 25.4251598,17.8887692 25.4276721,17.7568462 C25.4276721,17.7053333 25.4289282,17.6525641 25.4314404,17.5997949 C25.4364649,17.4490256 25.4364649,17.2982564 25.4502823,17.1512564 C25.4603312,17.0356667 25.4640996,16.9238462 25.4527945,16.8095128 C25.4502823,16.7868974 25.4553067,16.7642821 25.4565629,16.7429231 C25.4590751,16.6951795 25.4590751,16.6461795 25.4590751,16.5996923 C25.4590751,16.5381282 25.4590751,16.4765641 25.4590751,16.4162564 C25.4628435,16.3283077 25.4791731,16.2416154 25.4553067,16.1561795 L25.4553067,16.1247692 C25.4854537,16.1008974 25.4791731,16.072 25.4791731,16.0418462 L25.4791731,14.4524872 C25.4804292,14.3381538 25.4854537,14.2250769 25.4867098,14.1107436 L25.4867098,13.9361026 C25.4075741,13.9825897 25.3372313,14.0190256 25.271913,14.0642564 C25.1450447,14.1559744 25.0257131,14.2514615 24.9026132,14.3444359 C24.7707204,14.4487179 24.6388276,14.5517436 24.508191,14.6522564 C24.446641,14.7037692 24.3813227,14.7515128 24.3185166,14.8005128 C24.2142585,14.8821795 24.1087443,14.9638462 24.0069984,15.0467692 C23.8939474,15.1384872 23.7846648,15.2352308 23.6716139,15.3282051 C23.5145987,15.4576154 23.3563273,15.5832564 23.1955438,15.7114103 C23.0335041,15.8471026 22.8752327,15.9815385 22.7119369,16.1172308 C22.5976298,16.2139744 22.4770421,16.3107179 22.3577106,16.4062051 C22.341381,16.4200256 22.3225392,16.4413846 22.3049535,16.4589744 C22.2660137,16.4991795 22.2245617,16.5381282 22.1831096,16.5795897 C22.1441699,16.6210513 22.1102546,16.6700513 22.0650342,16.7102564 C21.9959475,16.7730769 21.9193241,16.8296154 21.8489813,16.8962051 C21.7711017,16.9665641 21.702015,17.0419487 21.6266477,17.1173333 C21.5814273,17.1600513 21.5349508,17.2040256 21.4884743,17.248 C21.4696325,17.269359 21.4507907,17.3007692 21.4319489,17.3233846 C21.4093387,17.3522821 21.3854724,17.3786667 21.361606,17.4037949 C21.330203,17.4377179 21.2975438,17.4691282 21.2661408,17.5017949 C21.1455531,17.6274359 21.0262215,17.7568462 20.8993532,17.8774615 C20.8051441,17.9628974 20.7260084,18.0608974 20.6481289,18.1563846 C20.6330554,18.1752308 20.6154697,18.1903077 20.6016524,18.2053846 C20.5740177,18.2367949 20.546383,18.2656923 20.5162361,18.2945897 C20.5061871,18.3071538 20.4948821,18.3184615 20.4860892,18.3310256 C20.3893678,18.4227436 20.2939026,18.5132051 20.1996934,18.6036667 C20.1444241,18.6576923 20.0853864,18.7104615 20.0313731,18.7644872 C19.9761038,18.8147436 19.9170661,18.8486667 19.8366743,18.8499231 C19.7286478,18.8524359 19.6218775,18.8524359 19.5163632,18.8072051 C19.349299,18.7355897 19.2701634,18.6036667 19.2488093,18.4327949 C19.2400164,18.3787692 19.2312236,18.3247436 19.2500654,18.2719744 C19.2638828,18.2393077 19.2726756,18.2028718 19.2915174,18.1727179 C19.3266888,18.1186923 19.3631164,18.0659231 19.4033123,18.0169231 C19.5465101,17.8385128 19.7060376,17.6726667 19.875614,17.5181282 C19.9710793,17.4339487 20.0615201,17.3434872 20.1519608,17.2567949 C20.3052077,17.1123077 20.45343,16.9665641 20.6091891,16.828359 C20.855389,16.611 21.1066133,16.3986667 21.3565816,16.1863333 C21.4834498,16.0770256 21.6103181,15.9765128 21.7359303,15.8709744 C21.8238588,15.7943333 21.9055067,15.7114103 21.9959475,15.6360256 C22.0700587,15.5732051 22.1542188,15.5141538 22.2295862,15.4525897 C22.3501738,15.3533333 22.465737,15.2553333 22.5850686,15.1598462 C22.6528992,15.1058205 22.723242,15.0530513 22.7910726,14.9977692 C22.877745,14.9261538 22.9656735,14.8557949 23.053602,14.7804103 C23.1025908,14.7389487 23.1540917,14.6937179 23.2068489,14.6560256 C23.3098508,14.5768718 23.4178773,14.504 23.5233915,14.427359 C23.6854312,14.308 23.8449587,14.1873846 24.0069984,14.0692821 C24.1087443,13.9951538 24.2117462,13.9247949 24.3134921,13.8494103 C24.4114696,13.7815641 24.5069348,13.7112051 24.601144,13.6395897 C24.7682082,13.5126923 24.9327601,13.3832821 25.1023365,13.257641 C25.2229242,13.1671795 25.3472803,13.083 25.4804292,12.9887692 C25.4804292,12.9033333 25.4829414,12.8053333 25.4829414,12.7098462 C25.4829414,12.6545641 25.4829414,12.6017949 25.4791731,12.5465128 C25.4791731,12.5326923 25.4716363,12.5100769 25.4628435,12.5088205 C25.4452578,12.5050513 25.4276721,12.5125897 25.4151108,12.522641 C25.3296946,12.5779231 25.2442783,12.6394872 25.1601181,12.6972821 L25.1412763,12.7048205 C25.0809825,12.718641 25.0257131,12.7312051 24.9704438,12.7588462 C24.9189428,12.7852308 24.869954,12.8065897 24.8046357,12.7990513 C24.7493663,12.7915128 24.6853041,12.8178974 24.6250103,12.8329744 C24.4931175,12.859359 24.3599686,12.859359 24.2343564,12.8128718 C24.0773412,12.7538205 23.9429362,12.6595897 23.8801301,12.4849487 C23.8349097,12.3530256 23.8122995,12.2185897 23.8122995,12.0766154 C23.8148118,11.8994615 23.817324,11.7185385 23.8148118,11.5413846 C23.8148118,11.4785641 23.8009944,11.4207692 23.8009944,11.3566923 C23.8009944,11.319 23.8122995,11.2787949 23.8198363,11.2373333 C23.827373,11.1669744 23.8386781,11.0966154 23.8399342,11.0262564 C23.8424464,10.8918205 23.8638005,10.7561282 23.8864107,10.6204359 C23.9052525,10.4797179 23.9341433,10.3364872 23.9793637,10.1995385 C24.0220719,10.0575641 24.0698045,9.91307692 24.1564769,9.78617949 C24.2519421,9.64546154 24.3461513,9.50097436 24.4504094,9.36653846 C24.5132154,9.28487179 24.601144,9.22582051 24.6890725,9.17179487 C24.7028898,9.16551282 24.7192194,9.15797436 24.7292684,9.14792308 C24.8448316,9.04489744 24.9905417,9.016 25.1349957,8.99087179 C25.1864967,8.98207692 25.2493028,8.99841026 25.2970354,9.02228205 C25.3598415,9.0524359 25.3661221,9.12530769 25.3598415,9.18435897 C25.3573292,9.25094872 25.3322068,9.31502564 25.3183895,9.38161538 C25.3108527,9.43312821 25.2744252,9.4695641 25.2555834,9.51353846 C25.2317171,9.56882051 25.1864967,9.60776923 25.1375079,9.6404359 C25.1262028,9.64797436 25.1148978,9.65676923 25.107361,9.67058974 C25.0772141,9.72461538 25.0508355,9.78241026 24.9980784,9.82387179 L24.9905417,9.83517949 C24.983005,9.90428205 24.9289917,9.95202564 24.9026132,10.0135897 C24.8950765,10.0286667 24.8850275,10.0487692 24.880003,10.0676154 C24.8724663,10.1203846 24.8636734,10.1693846 24.8209653,10.2121026 C24.8058918,10.2271795 24.7996112,10.2510513 24.7945867,10.2724103 C24.777001,10.3402564 24.7594153,10.409359 24.7405735,10.4797179 C24.7342929,10.4998205 24.7242439,10.5224359 24.7192194,10.5425385 C24.7079143,10.6128974 24.6890725,10.6794872 24.7016337,10.7498462 C24.7041459,10.7636667 24.715451,10.7774872 24.7217317,10.7913077 C24.7342929,10.8264872 24.735549,10.8578974 24.7217317,10.8930769 C24.7079143,10.9194615 24.7016337,10.948359 24.6966092,10.976 C24.6890725,11.0363077 24.6815358,11.0941026 24.6777674,11.1531538 C24.6727429,11.1870769 24.6765113,11.221 24.6765113,11.2561795 C24.6765113,11.27 24.6815358,11.2863333 24.6765113,11.2963846 C24.6350593,11.3667436 24.6639501,11.4358462 24.6664623,11.5087179 C24.6677184,11.5476667 24.6639501,11.5878718 24.6639501,11.6293333 C24.6614378,11.7072308 24.6966092,11.7775897 24.7292684,11.8454359 C24.7631837,11.9170513 24.8247336,11.9585128 24.911406,11.9534872 C25.0671651,11.9472051 25.1940334,11.879359 25.303316,11.7687949 C25.4138547,11.6607436 25.4553067,11.5250513 25.4754047,11.3818205 C25.5068077,11.1707436 25.5319302,10.9609231 25.5583087,10.7498462 C25.5733822,10.6455641 25.5871995,10.5425385 25.5947363,10.4382564 C25.5985046,10.3817179 25.5897118,10.3264359 25.5897118,10.2698974 L25.5897118,10.2510513 C25.6248832,10.213359 25.6186026,10.1618462 25.6211148,10.1166154 C25.6361883,9.95453846 25.6462372,9.79246154 25.6587985,9.63164103 C25.6663352,9.53364103 25.675128,9.43564103 25.685177,9.33889744 C25.6914576,9.23210256 25.6977382,9.12782051 25.7102995,9.02353846 C25.7153239,8.94564103 25.7178362,8.87025641 25.7542637,8.79612821 C25.8019963,8.69058974 25.8874126,8.62776923 25.9904146,8.57876923 C26.0858798,8.53102564 26.1851135,8.52348718 26.2906277,8.53479487 C26.3597144,8.54610256 26.4300572,8.56494872 26.4727653,8.62902564 C26.4991439,8.66671795 26.5443643,8.69310256 26.5468765,8.74712821 C26.5468765,8.76471795 26.5531571,8.78482051 26.5531571,8.80366667 C26.5531571,8.86397436 26.5443643,8.92553846 26.5431082,8.98584615 C26.5431082,9.00971795 26.5531571,9.03358974 26.56195,9.06123077 C26.5581816,9.07505128 26.5343153,9.08258974 26.5468765,9.114 C26.5581816,9.13661538 26.5531571,9.16676923 26.5368275,9.19817949 C26.5230102,9.22833333 26.5267786,9.2735641 26.5343153,9.31 C26.5431082,9.36276923 26.5267786,9.41302564 26.5343153,9.46705128 C26.5405959,9.51605128 26.510449,9.56882051 26.5041684,9.62033333 C26.4991439,9.6404359 26.4840704,9.65928205 26.5091929,9.67561538 L26.5154735,9.68315385 C26.4664847,9.751 26.4853266,9.83141026 26.4765337,9.90805128 C26.4576919,10.1141026 26.4451307,10.3201538 26.4300572,10.5299744 C26.4200082,10.6907949 26.407447,10.8528718 26.3961419,11.0136923 C26.3923735,11.052641 26.3773001,11.0915897 26.3785562,11.1280256 C26.3835807,11.2348205 26.3647389,11.3378462 26.3597144,11.4421282 C26.3572021,11.4835897 26.3546899,11.5212821 26.3685072,11.564 C26.3823246,11.5991795 26.3823246,11.640641 26.3735317,11.6758205 C26.3496654,11.7424103 26.3572021,11.809 26.3597144,11.8730769 C26.3597144,11.9082564 26.3622266,11.9421795 26.3572021,11.9761026 C26.3484093,12.0426923 26.3333358,12.1067692 26.3396164,12.179641 C26.3446409,12.2437179 26.3396164,12.3103077 26.3396164,12.3768974 C26.3396164,12.3882051 26.3433848,12.4020256 26.3484093,12.4233846 C26.3735317,12.4108205 26.3898613,12.3995128 26.4099593,12.3869487 C26.5091929,12.3216154 26.6084265,12.2512564 26.7126846,12.1871795 C26.8935661,12.0741026 27.0769599,11.9610256 27.2603537,11.8479487 C27.3131108,11.8152821 27.3646118,11.7826154 27.4173689,11.7512051 C27.5266515,11.6808462 27.6283973,11.5991795 27.7427044,11.5413846 C27.8846462,11.4710256 27.9976971,11.3566923 28.1496878,11.3139744 C28.1785786,11.3051795 28.1961643,11.2762821 28.223799,11.2674872 C28.2715316,11.2536667 28.2840929,11.1807949 28.3494112,11.2046667 C28.3921193,11.1795385 28.4348275,11.1531538 28.4775356,11.1292821 C28.5214999,11.1054103 28.5616958,11.0827949 28.6018917,11.0589231 C28.647112,11.0325385 28.6885641,11.0074103 28.7325283,10.9797692 C28.7764926,10.954641 28.8154324,10.9257436 28.8619089,10.899359 C28.9196905,10.8654359 28.9787282,10.8327692 29.039022,10.8001026 C29.2538188,10.6782308 29.4698718,10.5551026 29.6896931,10.4344872 C29.8605256,10.3352308 30.0376388,10.241 30.2097275,10.143 C30.3994018,10.0349487 30.586564,9.92438462 30.7737261,9.81382051 C30.8151781,9.78869231 30.8528618,9.76482051 30.9005944,9.73592308 C30.8792403,9.71707692 30.8717036,9.70576923 30.8578863,9.69823077 C30.7473476,9.64671795 30.6883098,9.555 30.6656997,9.44066667 C30.6531384,9.37784615 30.6531384,9.31376923 30.6506262,9.25094872 C30.6468578,9.1755641 30.6468578,9.10017949 30.6468578,9.02605128 L30.6468578,9.00469231 C30.6883098,8.91046154 30.6556507,8.80994872 30.6820292,8.71320513 C30.6857976,8.70189744 30.6857976,8.68682051 30.6807731,8.673 C30.6468578,8.5875641 30.6669558,8.50338462 30.6883098,8.42171795 C30.6958466,8.40161538 30.6857976,8.379 30.6832854,8.35512821 C30.679517,8.33502564 30.6669558,8.31115385 30.6732364,8.29482051 C30.7008711,8.24582051 30.6857976,8.19305128 30.6996149,8.14153846 C30.7134323,8.08876923 30.7096639,8.02846154 30.71092,7.97066667 C30.7134323,7.81110256 30.7134323,7.65153846 30.7134323,7.49071795 C30.7134323,7.44548718 30.7096639,7.40653846 30.6832854,7.36758974 C30.6531384,7.32110256 30.6167109,7.2884359 30.5551609,7.29094872 C30.5237579,7.29346154 30.4898426,7.28466667 30.4559273,7.28592308 C30.3679988,7.29471795 30.3014244,7.34246154 30.2348499,7.39648718 C30.214752,7.41533333 30.1858612,7.42287179 30.1682754,7.44046154 C30.1418969,7.46935897 30.1205428,7.49951282 30.1054694,7.53594872 C30.0941643,7.56861538 30.0740663,7.5824359 30.0476878,7.60128205 C30.0062357,7.63646154 29.9635276,7.66661538 29.9497103,7.72566667 C29.9409174,7.75205128 29.9019776,7.77089744 29.8730868,7.79853846 C29.8655501,7.84753846 29.8655501,7.90658974 29.8253542,7.9505641 L29.8190736,7.97820513 C29.8140491,8.02594872 29.8303787,8.07871795 29.7977195,8.1214359 C29.7839022,8.13776923 29.8341471,8.14907692 29.8065124,8.17169231 C29.7926951,8.18174359 29.7725971,8.18551282 29.7562675,8.19305128 C29.7499869,8.1955641 29.7487308,8.20310256 29.7424502,8.21566667 C29.7575236,8.22194872 29.7700849,8.22823077 29.7788777,8.23074359 C29.7751093,8.26466667 29.7725971,8.29733333 29.7700849,8.33125641 C29.7123033,8.34633333 29.709791,8.34633333 29.7223522,8.41041026 C29.7286328,8.43930769 29.7374257,8.46694872 29.7499869,8.49458974 C29.7663165,8.52097436 29.7587798,8.55112821 29.7399379,8.56117949 C29.7035104,8.58002564 29.7035104,8.61897436 29.6746196,8.64158974 C29.668339,8.64787179 29.6721074,8.68682051 29.6821563,8.69561538 C29.7160716,8.722 29.7236084,8.75341026 29.7223522,8.79612821 C29.7185839,8.81748718 29.7286328,8.83758974 29.7324012,8.86271795 C29.7123033,8.87653846 29.6846686,8.89035897 29.6670829,8.91046154 C29.6394482,8.93935897 29.668339,8.96574359 29.6746196,8.97705128 C29.6620584,9.01851282 29.6494972,9.04615385 29.6482411,9.07505128 C29.6432166,9.12279487 29.6444727,9.17179487 29.6444727,9.21953846 C29.6419604,9.25974359 29.6344237,9.30246154 29.6984859,9.30371795 C29.6670829,9.35774359 29.6218625,9.40046154 29.678388,9.45323077 C29.668339,9.45951282 29.6595462,9.46579487 29.6520094,9.47082051 C29.6959737,9.50851282 29.6909492,9.506 29.678388,9.55751282 C29.668339,9.59394872 29.6444727,9.63038462 29.6670829,9.67058974 C29.668339,9.67812821 29.6620584,9.69069231 29.6620584,9.70074359 C29.6595462,9.71707692 29.6520094,9.73592308 29.65829,9.74220513 C29.6959737,9.78241026 29.668339,9.81758974 29.6444727,9.84523077 C29.5979962,9.90428205 29.5728738,9.96835897 29.5615687,10.0399744 C29.5578003,10.0512821 29.5540319,10.0625897 29.5464952,10.0701282 C29.4849452,10.121641 29.4259075,10.1794359 29.3505402,10.213359 C29.2940147,10.2397436 29.2425137,10.2698974 29.1859883,10.2975385 C29.1030842,10.3402564 29.0126435,10.3364872 28.9234588,10.3201538 C28.811664,10.2987949 28.7651875,10.2296923 28.750114,10.0977692 C28.740065,10.0098205 28.7538824,9.92187179 28.7589069,9.83517949 C28.7626752,9.68566667 28.7676997,9.53615385 28.7752365,9.38789744 C28.7815171,9.21576923 28.7877977,9.04489744 28.7928222,8.87276923 C28.8003589,8.72702564 28.8091517,8.58002564 28.8154324,8.43553846 C28.8279936,8.23953846 28.8355303,8.04228205 28.8455793,7.84753846 C28.8518599,7.78220513 28.8518599,7.71812821 28.8656772,7.6565641 C28.8870313,7.53846154 28.9297394,7.43166667 28.9963139,7.33492308 C29.1169016,7.16279487 29.286478,7.07484615 29.4912258,7.04846154 C29.5050432,7.04720513 29.5176044,7.04469231 29.5314217,7.04720513 C29.5892033,7.05223077 29.6444727,7.06228205 29.7009982,7.02207692 C29.7273767,7.00448718 29.7688287,7.02207692 29.8065124,7.03841026 C29.8705746,7.06479487 29.9459419,7.07735897 30.018797,7.04594872 C30.0878837,7.01705128 30.1544581,6.98187179 30.2084713,6.92910256 C30.2348499,6.90146154 30.2599723,6.87130769 30.2850948,6.84115385 C30.3051927,6.82105128 30.3215223,6.7984359 30.3428764,6.7745641 C30.400658,6.71676923 30.4596957,6.66023077 30.5162212,6.60117949 L30.5312946,6.58735897 C30.6468578,6.517 30.7611649,6.43784615 30.8943138,6.39889744 C30.9860107,6.37125641 31.0814759,6.34738462 31.1781973,6.36371795 C31.2661258,6.38130769 31.3490299,6.40141026 31.4143482,6.47679487 C31.4758982,6.54589744 31.4959961,6.56851282 31.5123257,6.65394872 C31.5173502,6.68410256 31.5223747,6.71551282 31.55629,6.73058974 L31.5701073,6.75320513 C31.5186063,6.7984359 31.526143,6.83738462 31.5826685,6.88387179 C31.5839246,6.92533333 31.5864369,6.958 31.5902052,6.99946154 C31.5814124,7.00448718 31.5537777,7.00951282 31.546241,7.02458974 C31.5349359,7.04594872 31.5349359,7.07233333 31.536192,7.09871795 C31.536192,7.13012821 31.5374481,7.16028205 31.5424726,7.19294872 C31.55629,7.18541026 31.5663389,7.17661538 31.5839246,7.16530769 C31.5927175,7.21179487 31.5512655,7.25702564 31.6103032,7.29471795 C31.5902052,7.29848718 31.5826685,7.29974359 31.5650828,7.30225641 C31.5713634,7.36884615 31.5763879,7.43417949 31.5826685,7.50705128 C31.5726195,7.50830769 31.55629,7.51333333 31.5374481,7.51710256 C31.5173502,7.5585641 31.5374481,7.58117949 31.5738757,7.60128205 C31.55629,7.61510256 31.5424726,7.62641026 31.5286553,7.64023077 C31.5374481,7.66033333 31.5512655,7.67792308 31.55629,7.68797436 C31.5412165,7.70682051 31.5236308,7.72064103 31.5236308,7.73571795 C31.5223747,7.84502564 31.5198624,7.95433333 31.5223747,8.06489744 C31.5223747,8.09128205 31.5412165,8.11766667 31.5525216,8.1465641 C31.536192,8.16917949 31.504789,8.19053846 31.536192,8.22948718 L31.5311675,8.25712821 C31.5148379,8.30361538 31.5148379,8.30738462 31.55629,8.33502564 C31.55629,8.37020513 31.5588022,8.40664103 31.5625706,8.45061538 C31.5588022,8.45312821 31.5412165,8.46946154 31.5424726,8.48202564 C31.5487532,8.52348718 31.5588022,8.56117949 31.5223747,8.59510256 L31.5236308,8.61520513 C31.5487532,8.65038462 31.5487532,8.65038462 31.5286553,8.68682051 L31.5198624,8.70817949 C31.5349359,8.71823077 31.5487532,8.72828205 31.5663389,8.74461538 C31.5374481,8.7584359 31.5223747,8.77476923 31.5311675,8.8074359 C31.536192,8.83005128 31.5098135,8.86020513 31.5537777,8.87528205 L31.5625706,8.88784615 C31.5424726,8.93182051 31.5763879,8.94941026 31.6090471,8.96574359 C31.6015103,8.98333333 31.5964858,8.99589744 31.5927175,9.00469231 C31.5839246,9.016 31.5763879,9.02228205 31.5650828,9.03610256 C31.6002542,9.05117949 31.6253766,9.06751282 31.6216083,9.10897436 C31.6203522,9.11776923 31.6278889,9.16048718 31.6630603,9.16048718 L31.6869266,9.18058974 C31.732147,9.23964103 31.7748551,9.25597436 31.8502224,9.23210256 C31.9105163,9.21325641 31.9708101,9.19315385 32.0298478,9.16676923 C32.1918875,9.08635897 32.351415,9.00092308 32.5109425,8.91925641 C32.60892,8.87025641 32.7056413,8.81748718 32.8048749,8.771 C32.9317432,8.71320513 33.063636,8.70817949 33.2005533,8.72828205 C33.2482859,8.73582051 33.2985308,8.73958974 33.3475195,8.73958974 C33.4027889,8.74335897 33.4580582,8.78733333 33.4856929,8.84387179 C33.5145837,8.90669231 33.5510113,8.97202564 33.5836704,9.03484615 L33.5836704,9.06374359 C33.5610602,9.09138462 33.5547796,9.11776923 33.5836704,9.14541026 L33.5836704,9.17179487 L33.5836704,9.17179487 Z" id="Fill-8" fill="#FFFFFE"></path>
                    </g>
                </g>
            </g>
        </g>
    </g>
</svg>